HIERARCHY
ROOT Hips
{
	OFFSET 0.000000 0.000000 0.000000
	CHANNELS 6 Xposition Yposition Zposition Zrotation Yrotation Xrotation 
	JOINT LeftUpLeg_virtual
	{
		OFFSET 0.000000 0.000000 0.000000
		CHANNELS 3 Zrotation Yrotation Xrotation
		JOINT LeftUpLeg
		{
			OFFSET 10.205400 -3.823500 0.155100
			CHANNELS 3 Zrotation Yrotation Xrotation
			JOINT LeftLeg
			{
				OFFSET 0.708757 -12.982077 0.567790
				CHANNELS 3 Zrotation Yrotation Xrotation
				JOINT LeftFoot
				{
					OFFSET -0.708756 -10.717838 -2.184338
					CHANNELS 3 Zrotation Yrotation Xrotation
					JOINT LeftToeBase
					{
						OFFSET 0.108149 -7.191104 7.560241
						CHANNELS 3 Zrotation Yrotation Xrotation
						End Site
						{
							OFFSET 0.000000 0.000000 0.000000
						}
					}
				}
			}
		}
	}
	JOINT RightUpLeg_virtual
	{
		OFFSET 0.000000 0.000000 0.000000
		CHANNELS 3 Zrotation Yrotation Xrotation
		JOINT RightUpLeg
		{
			OFFSET -10.205400 -3.823500 0.005500
			CHANNELS 3 Zrotation Yrotation Xrotation
			JOINT RightLeg
			{
				OFFSET -0.708756 -12.982134 0.610632
				CHANNELS 3 Zrotation Yrotation Xrotation
				JOINT RightFoot
				{
					OFFSET 0.708754 -10.717769 -1.945823
					CHANNELS 3 Zrotation Yrotation Xrotation
					JOINT RightToeBase
					{
						OFFSET -0.108140 -7.191069 7.372968
						CHANNELS 3 Zrotation Yrotation Xrotation
						End Site
						{
							OFFSET 0.000000 0.000000 0.000000
						}
					}
				}
			}
		}
	}
	JOINT Spine_virtual
	{
		OFFSET 0.000000 0.000000 0.000000
		CHANNELS 3 Zrotation Yrotation Xrotation
		JOINT Spine
		{
			OFFSET 0.000000 6.876099 0.125700
			CHANNELS 3 Zrotation Yrotation Xrotation
			JOINT Spine1
			{
				OFFSET 0.000000 8.022060 0.146608
				CHANNELS 3 Zrotation Yrotation Xrotation
				JOINT Spine2
				{
					OFFSET 0.000000 9.168068 0.167552
					CHANNELS 3 Zrotation Yrotation Xrotation
					JOINT Neck_virtual
					{
						OFFSET 0.000000 0.000000 0.000000
						CHANNELS 3 Zrotation Yrotation Xrotation
						JOINT Neck
						{
							OFFSET 0.000000 10.314075 0.188496
							CHANNELS 3 Zrotation Yrotation Xrotation
							JOINT Head
							{
								OFFSET 0.000000 7.643700 -2.377400
								CHANNELS 3 Zrotation Yrotation Xrotation
								End Site
								{
									OFFSET 0.000000 0.000000 0.000000
								}
							}
						}
					}
					JOINT LeftShoulder_virtual
					{
						OFFSET 0.000000 0.000000 0.000000
						CHANNELS 3 Zrotation Yrotation Xrotation
						JOINT LeftShoulder
						{
							OFFSET 4.392200 8.824978 0.174984
							CHANNELS 3 Zrotation Yrotation Xrotation
							JOINT LeftArm
							{
								OFFSET 8.771219 -2.981674 -0.026999
								CHANNELS 3 Zrotation Yrotation Xrotation
								JOINT LeftForeArm
								{
									OFFSET 8.512804 0.000000 -0.000000
									CHANNELS 3 Zrotation Yrotation Xrotation
									JOINT LeftHand
									{
										OFFSET 18.484802 0.000000 -0.000000
										CHANNELS 3 Zrotation Yrotation Xrotation
										End Site
										{
											OFFSET 0.000000 0.000000 0.000000
										}
									}
								}
							}
						}
					}
					JOINT RightShoulder_virtual
					{
						OFFSET 0.000000 0.000000 0.000000
						CHANNELS 3 Zrotation Yrotation Xrotation
						JOINT RightShoulder
						{
							OFFSET -4.392200 8.824993 0.141379
							CHANNELS 3 Zrotation Yrotation Xrotation
							JOINT RightArm
							{
								OFFSET -8.771282 -2.981682 -0.094208
								CHANNELS 3 Zrotation Yrotation Xrotation
								JOINT RightForeArm
								{
									OFFSET -8.494598 0.000000 0.000000
									CHANNELS 3 Zrotation Yrotation Xrotation
									JOINT RightHand
									{
										OFFSET -18.483803 0.000000 0.000001
										CHANNELS 3 Zrotation Yrotation Xrotation
										End Site
										{
											OFFSET 0.000000 0.000000 0.000000
										}
									}
								}
							}
						}
					}
				}
			}
		}
	}
}
MOTION
Frames: 7
Frame Time: 0.033333
-4.254058 37.471760 -2.437271 -179.592352 -1.061929 179.928548 -6.507435 -4.103630 19.795068 -2.142662 2.738699 -29.076969 -2.384045 4.131736 14.239496 2.182155 -4.577707 11.548651 0.000000 0.000000 0.000000 1.526349 -5.484243 18.091725 -6.481736 -6.590207 -14.497404 -6.883566 5.964503 13.612035 12.719055 -0.095253 26.506974 0.000000 0.000000 0.000000 -3.032365 -2.592032 12.142938 -2.953751 8.244849 -5.869625 3.593990 -0.064190 6.963256 -0.096725 -0.061363 -0.031564 3.710743 1.415320 7.480273 13.841978 3.875921 6.968229 0.000000 0.000000 0.000000 4.562069 1.842693 4.611612 2.363532 -14.961746 3.914185 -38.881497 8.129493 -0.223160 -164.342589 -87.705093 -174.076933 0.000000 0.000000 0.000000 0.982003 3.059620 3.143902 -0.982695 5.939334 -7.106111 -17.580290 33.504223 -14.074733 177.552229 66.768022 -176.678293 0.000000 0.000000 0.000000 
-4.319069 37.462090 -2.354585 -179.599114 -1.398421 -179.999390 -6.500811 -4.381261 19.872796 -2.386899 2.933913 -29.466553 -2.420306 4.015424 14.249032 2.272650 -4.686775 11.748777 0.000000 0.000000 0.000000 1.505692 -5.750762 18.274081 -6.564554 -6.417827 -14.857705 -6.813970 6.069131 13.605521 12.664985 -0.066435 26.435428 0.000000 0.000000 0.000000 -2.942753 -2.764860 12.461336 -2.760819 8.467175 -5.669364 3.626865 -0.048660 7.166746 -0.077339 -0.040987 -0.030944 3.729215 1.447856 7.795390 14.331562 3.639718 7.237661 0.000000 0.000000 0.000000 4.529418 1.802446 4.873119 2.134652 -14.479531 4.046248 -40.004066 9.056416 0.268894 -167.243028 -88.101838 -170.669488 0.000000 0.000000 0.000000 1.003532 3.113301 3.340058 -1.312265 5.374368 -7.360426 -17.655026 32.894276 -14.355280 177.464611 65.314504 -177.161938 0.000000 0.000000 0.000000 
-4.372280 37.449104 -2.292850 -179.555086 -1.599433 179.992423 -6.464061 -4.509547 20.026338 -2.635547 3.169694 -29.771360 -2.413551 3.931606 14.245002 2.354432 -4.761502 11.867199 0.000000 0.000000 0.000000 1.488766 -5.870428 18.456436 -6.607530 -6.299737 -15.123934 -6.764132 6.109317 13.555816 12.671113 -0.068172 26.425485 0.000000 0.000000 0.000000 -2.850255 -2.910198 12.761526 -2.684445 8.637263 -5.475729 3.603157 -0.075066 7.303793 -0.082396 -0.111069 -0.043199 3.834463 1.501637 7.964633 14.817342 3.382189 7.496174 0.000000 0.000000 0.000000 4.590182 1.874596 4.954447 1.965092 -13.969805 4.180772 -41.037839 9.828685 0.516310 -168.745629 -88.276029 -168.793891 0.000000 0.000000 0.000000 1.040312 3.232698 3.471373 -1.591073 5.143352 -7.557413 -17.841711 32.484195 -14.541056 177.638208 64.362525 -177.321259 0.000000 0.000000 0.000000 
-4.412906 37.435268 -2.244801 -179.593759 -1.780726 179.963668 -6.501153 -4.610150 20.160994 -2.876620 3.376960 -29.990322 -2.365664 3.887918 14.269225 2.423888 -4.823830 11.939061 0.000000 0.000000 0.000000 1.432181 -5.978432 18.632418 -6.690007 -6.229485 -15.368694 -6.755887 6.170287 13.526300 12.764753 -0.069798 26.474896 0.000000 0.000000 0.000000 -2.895956 -3.031423 13.030408 -2.647298 8.790464 -5.276011 3.689590 -0.057740 7.415206 -0.048729 -0.068477 -0.011811 3.702490 1.471093 8.056822 14.916740 3.096542 7.688122 0.000000 0.000000 0.000000 4.548650 1.869336 5.017021 1.766879 -13.554647 4.332754 -41.874876 10.457418 0.628298 -169.135892 -88.379363 -168.155569 0.000000 0.000000 0.000000 0.999407 3.210847 3.504664 -1.869423 4.885273 -7.699993 -17.858226 32.416829 -14.612179 177.775385 63.879563 -177.496290 0.000000 0.000000 0.000000 
-4.451786 37.417023 -2.195759 -179.582011 -2.163074 179.912852 -6.507741 -4.935232 20.176360 -3.061085 3.597870 -30.107112 -2.301255 3.822432 14.449682 2.471671 -4.896974 12.085506 0.000000 0.000000 0.000000 1.334084 -6.418541 18.735467 -6.686610 -6.130222 -15.649961 -6.728634 6.132092 13.771111 12.749810 -0.161443 26.341113 0.000000 0.000000 0.000000 -2.940440 -3.675851 13.215699 -2.708304 8.889851 -5.085179 3.647923 -0.042929 7.498410 -0.066175 -0.034842 -0.017824 3.796922 1.544369 8.169715 15.189371 2.949856 7.881416 0.000000 0.000000 0.000000 4.631560 1.926880 5.071104 1.704180 -13.228127 4.522735 -42.415830 10.870569 0.743874 -167.670557 -88.415631 -169.466911 0.000000 0.000000 0.000000 1.036652 3.332010 3.594830 -1.949125 4.914298 -7.750216 -17.699558 32.380872 -14.622487 178.174719 63.928754 -177.435187 0.000000 0.000000 0.000000 
-4.483335 37.398529 -2.140630 -179.587475 -2.068198 179.945049 -6.539594 -4.889015 20.122352 -3.248622 3.799936 -30.253770 -2.240609 3.845782 14.495342 2.509247 -4.957066 11.870231 0.000000 0.000000 0.000000 1.315092 -6.322304 18.705323 -6.722364 -6.116402 -15.931652 -6.717675 6.203793 14.174003 12.841737 -0.190175 26.202455 0.000000 0.000000 0.000000 -2.874645 -3.102581 13.259660 -2.779888 8.878168 -4.954600 3.685141 -0.058577 7.580695 -0.050747 -0.106958 -0.055751 3.804784 1.470335 8.254487 15.123460 2.706514 7.756222 0.000000 0.000000 0.000000 4.638681 1.792815 5.227154 1.612988 -13.183709 4.352417 -42.612539 10.961521 0.827739 -170.629942 -88.520508 -166.437790 0.000000 0.000000 0.000000 1.044620 3.202414 3.498690 -2.018482 4.691486 -7.640511 -17.279815 32.434659 -14.441810 178.619965 64.248263 -177.328049 0.000000 0.000000 0.000000 
-4.509724 37.379894 -2.084110 -179.605985 -1.981893 179.955855 -6.574292 -4.839116 20.041814 -3.387370 3.943570 -30.299003 -2.179321 3.886357 14.546527 2.534566 -5.032967 11.714325 0.000000 0.000000 0.000000 1.273220 -6.224188 18.627555 -6.760507 -6.084508 -16.120360 -6.695284 6.232458 14.597368 12.940383 -0.248553 26.095363 0.000000 0.000000 0.000000 -2.934251 -3.160211 13.283119 -2.956469 8.868551 -4.832171 3.700200 0.010528 7.648703 -0.073458 -0.172252 -0.034067 3.737330 1.473960 8.313582 15.019706 2.673836 7.708168 0.000000 0.000000 0.000000 4.652753 1.823522 5.204992 1.507631 -13.136330 4.555242 -42.630052 10.807860 0.788952 -174.632091 -88.529797 -162.424972 0.000000 0.000000 0.000000 1.047801 3.264377 3.548028 -2.065401 4.744565 -7.591791 -16.605935 32.581122 -13.944619 178.994205 64.786188 -177.288338 0.000000 0.000000 0.000000 
